<svg xmlns="http://www.w3.org/2000/svg" xmlns:xlink="http://www.w3.org/1999/xlink" width="500" zoomAndPan="magnify" viewBox="0 0 375 374.999991" height="500" preserveAspectRatio="xMidYMid meet" version="1.0"><defs><g/><clipPath id="28f1420a6d"><path d="M 56.488281 151.464844 L 318.238281 151.464844 L 318.238281 223.464844 L 56.488281 223.464844 Z M 56.488281 151.464844 " clip-rule="nonzero"/></clipPath><clipPath id="a06b18bf98"><path d="M 63.558594 158.238281 L 187.332031 158.238281 L 187.332031 216.761719 L 63.558594 216.761719 Z M 63.558594 158.238281 " clip-rule="nonzero"/></clipPath></defs><g clip-path="url(#28f1420a6d)"><path stroke-linecap="butt" transform="matrix(0.750202, 0, 0, 0.749268, 56.489269, 151.465449)" fill="none" stroke-linejoin="miter" d="M -0.00131637 -0.000808127 L 348.904932 -0.000808127 L 348.904932 96.092952 L -0.00131637 96.092952 L -0.00131637 -0.000808127 " stroke="#898484" stroke-width="6" stroke-opacity="1" stroke-miterlimit="4"/></g><g clip-path="url(#a06b18bf98)"><path fill="#737373" d="M 63.558594 158.238281 L 187.515625 158.238281 L 187.515625 216.84375 L 63.558594 216.84375 Z M 63.558594 158.238281 " fill-opacity="1" fill-rule="nonzero"/></g><g fill="#ffffff" fill-opacity="1"><g transform="translate(68.610665, 196.618259)"><g><path d="M 9.410156 0.363281 C 13.707031 0.363281 16.488281 -1.742188 16.488281 -5.167969 C 16.488281 -8.0625 14.550781 -9.800781 9.523438 -11.039062 C 5.703125 -11.964844 4.4375 -12.976562 4.4375 -14.605469 C 4.4375 -16.488281 6.125 -17.667969 8.933594 -17.667969 C 11.824219 -17.667969 13.621094 -16.207031 13.679688 -13.847656 L 16.121094 -13.847656 C 16.09375 -17.667969 13.339844 -20.027344 8.933594 -20.027344 C 4.632812 -20.027344 1.910156 -17.917969 1.910156 -14.605469 C 1.910156 -11.570312 4.074219 -9.886719 8.902344 -8.734375 C 12.441406 -7.894531 13.929688 -6.910156 13.929688 -5.082031 C 13.929688 -3.144531 12.191406 -1.996094 9.410156 -1.996094 C 6.347656 -1.996094 4.214844 -3.511719 4.15625 -6.039062 L 1.683594 -6.039062 C 1.714844 -2.191406 4.71875 0.363281 9.410156 0.363281 Z M 9.410156 0.363281 "/></g></g></g><g fill="#ffffff" fill-opacity="1"><g transform="translate(88.911985, 196.618259)"><g><path d="M 2.863281 0 L 5.335938 0 L 5.335938 -8.847656 L 8.144531 -8.847656 C 8.902344 -8.847656 9.578125 -8.902344 10.195312 -9.015625 L 15.28125 0 L 18.144531 0 L 12.5 -9.914062 C 13.621094 -10.644531 14.410156 -11.769531 14.96875 -13.257812 L 17.386719 -19.660156 L 14.773438 -19.660156 L 12.75 -14.242188 C 11.964844 -12.105469 10.8125 -11.207031 8.144531 -11.207031 L 5.335938 -11.207031 L 5.335938 -19.660156 L 2.863281 -19.660156 Z M 2.863281 0 "/></g></g></g><g fill="#ffffff" fill-opacity="1"><g transform="translate(110.252188, 196.618259)"><g><path d="M 2.863281 0 L 5.335938 0 L 5.335938 -7.050781 L 9.660156 -7.050781 L 14.464844 0 L 17.441406 0 L 12.5 -7.304688 C 15.363281 -8.003906 17.132812 -10.167969 17.132812 -13.339844 C 17.132812 -17.246094 14.4375 -19.660156 10.363281 -19.660156 L 2.863281 -19.660156 Z M 5.335938 -9.410156 L 5.335938 -17.300781 L 10.082031 -17.300781 C 12.949219 -17.300781 14.605469 -15.839844 14.605469 -13.339844 C 14.605469 -10.839844 12.949219 -9.410156 10.082031 -9.410156 Z M 5.335938 -9.410156 "/></g></g></g><g fill="#ffffff" fill-opacity="1"><g transform="translate(131.508163, 196.618259)"><g><path d="M 2.863281 0 L 5.335938 0 L 5.335938 -15.054688 L 11.851562 -5.222656 L 13.875 -5.222656 L 20.390625 -15.027344 L 20.390625 0 L 22.863281 0 L 22.863281 -19.660156 L 20.558594 -19.660156 L 12.890625 -8.003906 L 5.167969 -19.660156 L 2.863281 -19.660156 Z M 2.863281 0 "/></g></g></g><g fill="#ffffff" fill-opacity="1"><g transform="translate(159.362479, 196.618259)"><g><path d="M 11.570312 0.363281 C 16.347656 0.363281 20.222656 -2.527344 21.402344 -6.910156 L 18.789062 -6.910156 C 17.78125 -3.960938 15 -2.105469 11.65625 -2.105469 C 7.273438 -2.105469 4.15625 -5.28125 4.15625 -9.832031 C 4.15625 -14.378906 7.273438 -17.554688 11.65625 -17.554688 C 14.914062 -17.554688 17.582031 -15.8125 18.59375 -12.976562 L 21.234375 -12.976562 C 19.941406 -17.300781 16.207031 -20.027344 11.570312 -20.027344 C 5.785156 -20.027344 1.628906 -15.757812 1.628906 -9.832031 C 1.628906 -3.902344 5.785156 0.363281 11.570312 0.363281 Z M 11.570312 0.363281 "/></g></g></g><g fill="#000000" fill-opacity="1"><g transform="translate(224.213512, 196.769512)"><g><path d="M 2.078125 0 L 15.785156 0 L 15.785156 -5.253906 L 7.75 -5.253906 L 7.75 -19.660156 L 2.078125 -19.660156 Z M 2.078125 0 "/></g></g></g><g fill="#000000" fill-opacity="1"><g transform="translate(240.699415, 196.769512)"><g><path d="M 0.140625 0 L 6.152344 0 L 7.21875 -2.78125 L 13.929688 -2.78125 L 15 0 L 21.035156 0 L 13.398438 -19.660156 L 7.78125 -19.660156 Z M 8.398438 -6.9375 L 10.589844 -13.03125 L 12.78125 -6.9375 Z M 8.398438 -6.9375 "/></g></g></g><g fill="#000000" fill-opacity="1"><g transform="translate(261.875512, 196.769512)"><g><path d="M 2.078125 0 L 12.160156 0 C 16.148438 0 18.929688 -2.246094 18.929688 -5.476562 C 18.929688 -7.554688 17.808594 -9.242188 15.953125 -10.054688 C 17.46875 -10.925781 18.339844 -12.5 18.339844 -14.378906 C 18.339844 -17.609375 15.757812 -19.660156 11.65625 -19.660156 L 2.078125 -19.660156 Z M 7.640625 -4.214844 L 7.640625 -7.890625 L 11.066406 -7.890625 C 12.414062 -7.890625 13.171875 -7.21875 13.171875 -6.066406 C 13.171875 -4.886719 12.414062 -4.214844 11.066406 -4.214844 Z M 7.640625 -11.9375 L 7.640625 -15.476562 L 10.589844 -15.476562 C 11.910156 -15.476562 12.640625 -14.828125 12.640625 -13.707031 C 12.640625 -12.554688 11.910156 -11.9375 10.589844 -11.9375 Z M 7.640625 -11.9375 "/></g></g></g></svg>